# xmcd
#
# Track frame offsets: 
#        150
#        18120
#        35034
#        44680
#        57577
#        71962
#        93710
#        108507
#        131861
#        148159
#        167685
#        182671
#        197802
#        210517
#
# Disc length: 2969 seconds
#
# Revision: 0
# Processed by: cddbd v1.5.2PL0 Copyright (c) Steve Scherf et al.
# Submitted via: ExactAudioCopyFreeDBPlugin 1.0
#
DISCID=de0b970e
DTITLE=Various Artist - Saving Grace
DYEAR=2013
DGENRE=Gospel
TTITLE0=Wilburn and Wilburn - Heaven's Jubilee
TTITLE1=Assurance, Brian Free and - I Will Be Praying
TTITLE2=Nelons - Down To The River
TTITLE3=Legacy Five - Nobody Ever Loved Me Like God Does
TTITLE4=Blackwood Brothers - Swing Low, Sweet Chariot
TTITLE5=Perrys - I Rest My Case At The Cross
TTITLE6=Greater Vision - For All He's Done
TTITLE7=Hoskins Family - Safe Thus Far
TTITLE8=New River, Karen Peck and - I've Been Broken
TTITLE9=Browders, The - Praise You In This Valley
TTITLE10=Crabb, Adam - Higher Ground
TTITLE11=Red Roots - Christian Country Girl
TTITLE12=Mark Trammell Trio - Guide Me, O Thou Great Jehovah
TTITLE13=Watts, Rowsey and Bean - Turn Your Radio On
EXTD=
EXTT0=
EXTT1=
EXTT2=
EXTT3=
EXTT4=
EXTT5=
EXTT6=
EXTT7=
EXTT8=
EXTT9=
EXTT10=
EXTT11=
EXTT12=
EXTT13=
PLAYORDER=
